PathFileType	4	(X/Y/Z)	RBDS05static.trc
DataRate	CameraRate	NumFrames	NumMarkers	Units	OrigDataRate	OrigDataStartFrame	OrigNumFrames
150.000000	150.000000	4	48	mm	150.000000	131	150
Frame#	Time	L.Ankle			L.Ankle.Medial			L.ASIS			L.GTR			L.Heel.Bottom			L.Heel.Lateral			L.Heel.Top			L.HF			L.Iliac.Crest			L.Knee			L.Knee.Medial			L.MT1			L.MT2			L.MT5			L.PSIS			L.Shank.Bottom.Lateral			L.Shank.Bottom.Medial			L.Shank.Top.Lateral			L.Shank.Top.Medial			L.Thigh.Bottom.Lateral			L.Thigh.Bottom.Medial			L.Thigh.Top.Lateral			L.Thigh.Top.Medial			L.TT			R.Ankle			R.Ankle.Medial			R.ASIS			R.GTR			R.Heel.Bottom			R.Heel.Lateral			R.Heel.Top			R.HF			R.Iliac.Crest			R.Knee			R.Knee.Medial			R.MT1			R.MT2			R.MT5			R.PSIS			R.Shank.Bottom.Lateral			R.Shank.Bottom.Medial			R.Shank.Top.Lateral			R.Shank.Top.Medial			R.Thigh.Bottom.Lateral			R.Thigh.Bottom.Medial			R.Thigh.Top.Lateral			R.Thigh.Top.Medial			R.TT			
		X1	Y1	Z1	X2	Y2	Z2	X3	Y3	Z3	X4	Y4	Z4	X5	Y5	Z5	X6	Y6	Z6	X7	Y7	Z7	X8	Y8	Z8	X9	Y9	Z9	X10	Y10	Z10	X11	Y11	Z11	X12	Y12	Z12	X13	Y13	Z13	X14	Y14	Z14	X15	Y15	Z15	X16	Y16	Z16	X17	Y17	Z17	X18	Y18	Z18	X19	Y19	Z19	X20	Y20	Z20	X21	Y21	Z21	X22	Y22	Z22	X23	Y23	Z23	X24	Y24	Z24	X25	Y25	Z25	X26	Y26	Z26	X27	Y27	Z27	X28	Y28	Z28	X29	Y29	Z29	X30	Y30	Z30	X31	Y31	Z31	X32	Y32	Z32	X33	Y33	Z33	X34	Y34	Z34	X35	Y35	Z35	X36	Y36	Z36	X37	Y37	Z37	X38	Y38	Z38	X39	Y39	Z39	X40	Y40	Z40	X41	Y41	Z41	X42	Y42	Z42	X43	Y43	Z43	X44	Y44	Z44	X45	Y45	Z45	X46	Y46	Z46	X47	Y47	Z47	X48	Y48	Z48	

132	0.8733333333333334	700.2313842773438	104.8366470336914	1043.6787109375	726.2447509765625	110.0215072631836	1122.65673828125	834.7285766601563	978.8958740234375	1106.579833984375	755.2744750976563	888.6643676757813	1058.770141601563	637.7555541992188	38.28110122680664	1080.578369140625	671.319580078125	57.42241287231445	1039.920532226563	648.8133544921875	87.46591949462891	1082.876342773438	732.7266845703125	449.5049743652344	1050.679443359375	762.49853515625	1037.855102539063	1067.156982421875	742.0725708007813	500.71044921875	1057.8681640625	743.1704711914063	488.4062805175781	1175.320068359375	841.0296020507813	56.91707229614258	1127.295532226563	851.4131469726563	66.80742645263672	1074.553955078125	820.528076171875	50.89875793457031	1022.167663574219	676.118896484375	1002.864685058594	1170.406982421875	709.9578857421875	185.3735504150391	1037.77490234375	669.7518920898438	182.83740234375	1069.234375	706.50537109375	265.7418212890625	1032.854370117188	665.7935180664063	267.5693664550781	1066.828735351563	757.6817016601563	630.8312377929688	1043.170532226563	695.0548095703125	624.39404296875	1080.683959960938	741.4204711914063	740.5743408203125	1043.1201171875	687.6677856445313	734.4230346679688	1085.81103515625	789.9974365234375	421.9324645996094	1097.551635742188	692.7403564453125	107.2397918701172	1408.666137695313	716.5660400390625	118.5167388916016	1334.57666015625	827.0415649414063	987.5740356445313	1336.675170898438	743.2069702148438	894.08349609375	1383.123779296875	631.0737915039063	39.46871566772461	1371.5537109375	659.0955810546875	53.85387420654297	1409.622924804688	640.885986328125	87.35369110107422	1371.863037109375	721.3284912109375	460.8211364746094	1389.5380859375	767.6950073242188	1030.951904296875	1362.107666015625	734.7830810546875	513.998046875	1384.0048828125	756.5534057617188	491.78271484375	1273.226318359375	834.7357788085938	58.16947937011719	1329.217163085938	841.5784912109375	72.69419097900391	1370.123657226563	814.9857177734375	52.68169784545898	1434.485961914063	677.9088745117188	1010.613525390625	1258.474487304688	693.2483520507813	195.6135864257813	1411.888793945313	657.2005615234375	194.1443328857422	1370.48388671875	687.945068359375	276.6520080566406	1410.839111328125	654.3177490234375	273.9560546875	1369.139770507813	753.6835327148438	607.9277954101563	1399.495239257813	690.7014770507813	601.8104248046875	1360.920776367188	739.5956420898438	717.7890625	1400.0703125	681.508544921875	711.7698974609375	1360.407104492188	783.6767578125	429.522705078125	1355.703125	
133	0.88	700.2354736328125	104.8393173217773	1043.676879882813	726.2429809570313	110.017204284668	1122.662353515625	834.7278442382813	978.9049072265625	1106.5625	755.275634765625	888.65283203125	1058.768676757813	637.7451782226563	38.27596664428711	1080.5703125	671.3203125	57.40530776977539	1039.93310546875	648.8140869140625	87.46737670898438	1082.885498046875	732.722900390625	449.5387573242188	1050.692504882813	762.4793701171875	1037.840087890625	1067.159057617188	742.0761108398438	500.7121887207031	1057.866943359375	743.15771484375	488.40869140625	1175.318603515625	841.02685546875	56.92199325561523	1127.298461914063	851.4032592773438	66.80947875976563	1074.541381835938	820.5283203125	50.90429306030273	1022.160949707031	676.118408203125	1002.86181640625	1170.399291992188	709.9445190429688	185.3688049316406	1037.779418945313	669.7540283203125	182.827880859375	1069.232666015625	706.5032958984375	265.7425537109375	1032.853881835938	665.79296875	267.5638732910156	1066.817993164063	757.6809692382813	630.8327026367188	1043.1640625	695.055419921875	624.3967895507813	1080.695922851563	741.413818359375	740.5724487304688	1043.116088867188	687.673828125	734.4226684570313	1085.808227539063	790.3074340820313	421.5994567871094	1097.322875976563	692.7408447265625	107.2329025268555	1408.66845703125	716.5795288085938	118.5177841186523	1334.568969726563	827.0482177734375	987.5750732421875	1336.664916992188	743.2030029296875	894.088134765625	1383.124755859375	631.0730590820313	39.46587371826172	1371.53076171875	659.0869140625	53.84491348266602	1409.621337890625	640.8831176757813	87.34499359130859	1371.86474609375	721.3278198242188	460.8183898925781	1389.52587890625	767.7032470703125	1030.962890625	1362.097045898438	734.7808837890625	514.0021362304688	1384.00537109375	756.5407104492188	491.7841796875	1273.2099609375	834.7368774414063	58.17567825317383	1329.21484375	841.5776977539063	72.70977783203125	1370.12451171875	814.9791259765625	52.68875885009766	1434.494140625	677.9190673828125	1010.605773925781	1258.488159179688	693.2427368164063	195.6072540283203	1411.894287109375	657.2005615234375	194.1402130126953	1370.484619140625	687.9439086914063	276.6478576660156	1410.841796875	654.3146362304688	273.9467468261719	1369.13818359375	753.6820678710938	607.9248657226563	1399.479248046875	690.6883544921875	601.8148803710938	1360.932739257813	739.5973510742188	717.7830810546875	1400.06689453125	681.493896484375	711.7733764648438	1360.417236328125	783.6743774414063	429.5298767089844	1355.705200195313	
134	0.8866666666666667	700.2274169921875	104.8386077880859	1043.683349609375	726.2445068359375	110.0213775634766	1122.653198242188	834.7293090820313	978.8937377929688	1106.557006835938	755.2619018554688	888.6543579101563	1058.75439453125	637.7537841796875	38.26979827880859	1080.58056640625	671.3223266601563	57.40583038330078	1039.916870117188	648.8124389648438	87.46757507324219	1082.8701171875	732.7250366210938	449.5022277832031	1050.680908203125	762.4739379882813	1037.844360351563	1067.156494140625	742.0758666992188	500.7153625488281	1057.86328125	743.1776733398438	488.4015502929688	1175.3095703125	841.0198974609375	56.91177368164063	1127.298828125	851.4114990234375	66.81278991699219	1074.54296875	820.5302124023438	50.90494537353516	1022.165344238281	676.116943359375	1002.855346679688	1170.39990234375	709.9539794921875	185.3703918457031	1037.775390625	669.748291015625	182.8384704589844	1069.229736328125	706.5259399414063	265.6923828125	1032.847045898438	665.788330078125	267.5647583007813	1066.818603515625	757.6676635742188	630.833740234375	1043.153686523438	695.0531005859375	624.3897705078125	1080.704711914063	741.4165649414063	740.5653076171875	1043.114013671875	687.6730346679688	734.415771484375	1085.817993164063	790.3058471679688	421.6030578613281	1097.328491210938	692.7380981445313	107.2364273071289	1408.663818359375	716.5502319335938	118.5216064453125	1334.558837890625	827.0520629882813	987.5731201171875	1336.660034179688	743.2132568359375	894.0935668945313	1383.112182617188	631.0731201171875	39.4749755859375	1371.549194335938	659.0830078125	53.84944534301758	1409.623168945313	640.88232421875	87.34747314453125	1371.865966796875	721.3187255859375	460.8185424804688	1389.526611328125	767.7120361328125	1030.965087890625	1362.091430664063	734.772705078125	513.9974365234375	1384.007446289063	756.5285034179688	491.7938232421875	1273.215454101563	834.7284545898438	58.17158508300781	1329.214599609375	841.57666015625	72.703369140625	1370.12158203125	814.987060546875	52.68511199951172	1434.490478515625	677.9258422851563	1010.607421875	1258.479736328125	693.2384643554688	195.6060028076172	1411.888061523438	657.199951171875	194.1447601318359	1370.480712890625	687.94189453125	276.6476745605469	1410.83349609375	654.3067016601563	273.95556640625	1369.143676757813	753.6820678710938	607.9252319335938	1399.482055664063	690.6838989257813	601.8174438476563	1360.94091796875	739.6033325195313	717.7898559570313	1400.064331054688	681.4920043945313	711.767822265625	1360.438354492188	783.6558837890625	429.5408935546875	1355.70166015625	
135	0.8933333333333334	700.227294921875	104.8353958129883	1043.680297851563	726.2466430664063	110.0120315551758	1122.6552734375	834.7153930664063	978.9029541015625	1106.550903320313	755.2587890625	888.651123046875	1058.750610351563	637.7567138671875	38.27601623535156	1080.5771484375	671.3159790039063	57.41279602050781	1039.926879882813	648.811767578125	87.46541595458984	1082.874145507813	732.6996459960938	449.5423278808594	1050.691040039063	762.4592895507813	1037.836791992188	1067.149780273438	742.0758056640625	500.7005004882813	1057.867309570313	743.1907348632813	488.413330078125	1175.307373046875	841.02294921875	56.92427444458008	1127.296020507813	851.40185546875	66.81344604492188	1074.542724609375	820.52685546875	50.89895248413086	1022.157531738281	676.1167602539063	1002.855590820313	1170.408081054688	709.9475708007813	185.3667755126953	1037.77880859375	669.7471313476563	182.8357238769531	1069.22998046875	706.5283203125	265.6888427734375	1032.849487304688	665.7894287109375	267.5662536621094	1066.822998046875	757.6642456054688	630.82763671875	1043.153076171875	695.0588989257813	624.3832397460938	1080.68505859375	741.406982421875	740.5718383789063	1043.103271484375	687.6730346679688	734.4223022460938	1085.820068359375	790.3003540039063	421.598876953125	1097.318237304688	692.7291259765625	107.2320556640625	1408.661010742188	716.5687255859375	118.5202331542969	1334.5732421875	827.0567016601563	987.5729370117188	1336.641967773438	743.2166137695313	894.0880737304688	1383.115966796875	631.07177734375	39.46555328369141	1371.550170898438	659.0806884765625	53.84793472290039	1409.626831054688	640.8822021484375	87.34859466552734	1371.857788085938	721.3194580078125	460.8166809082031	1389.5224609375	767.719482421875	1030.965698242188	1362.082275390625	734.7689819335938	513.9951171875	1384.014404296875	756.4976806640625	491.796875	1273.200561523438	834.718994140625	58.17905807495117	1329.213745117188	841.5691528320313	72.71073913574219	1370.122680664063	814.9786376953125	52.68217086791992	1434.490844726563	677.9258422851563	1010.612060546875	1258.479370117188	693.2411499023438	195.6083984375	1411.893432617188	657.1964111328125	194.1343994140625	1370.485717773438	687.9349975585938	276.6352233886719	1410.832275390625	654.3016357421875	273.9507141113281	1369.139526367188	753.681396484375	607.9278564453125	1399.48779296875	690.67431640625	601.8106079101563	1360.95947265625	739.607666015625	717.797119140625	1400.05908203125	681.4791870117188	711.77685546875	1360.451416015625	783.6522216796875	429.53955078125	1355.698120117188	
